<?xml version="1.0" encoding="UTF-8" standalone="no"?>
<svg
   xmlns:dc="http://purl.org/dc/elements/1.1/"
   xmlns:cc="http://creativecommons.org/ns#"
   xmlns:rdf="http://www.w3.org/1999/02/22-rdf-syntax-ns#"
   xmlns:svg="http://www.w3.org/2000/svg"
   xmlns="http://www.w3.org/2000/svg"
   xmlns:sodipodi="http://sodipodi.sourceforge.net/DTD/sodipodi-0.dtd"
   xmlns:inkscape="http://www.inkscape.org/namespaces/inkscape"
   viewBox="0 0 18 18"
   width="18"
   height="18"
   version="1.1"
   id="svg10"
   sodipodi:docname="emoji.svg"
   inkscape:version="1.0.2-2 (e86c870879, 2021-01-15)">
  <metadata
     id="metadata16">
    <rdf:RDF>
      <cc:Work
         rdf:about="">
        <dc:format>image/svg+xml</dc:format>
        <dc:type
           rdf:resource="http://purl.org/dc/dcmitype/StillImage" />
        <dc:title>Emoji</dc:title>
      </cc:Work>
    </rdf:RDF>
  </metadata>
  <defs
     id="defs14" />
  <sodipodi:namedview
     pagecolor="#ffffff"
     bordercolor="#666666"
     borderopacity="1"
     objecttolerance="10"
     gridtolerance="10"
     guidetolerance="10"
     inkscape:pageopacity="0"
     inkscape:pageshadow="2"
     inkscape:window-width="2000"
     inkscape:window-height="1046"
     id="namedview12"
     showgrid="false"
     inkscape:zoom="16"
     inkscape:cx="-9.9689866"
     inkscape:cy="8.7850354"
     inkscape:window-x="-9"
     inkscape:window-y="-9"
     inkscape:window-maximized="1"
     inkscape:current-layer="g8" />
  <title
     id="title2">Emoji</title>
  <g
     fill="currentColor"
     fillRule="evenodd"
     id="g8">
    <path
       d="M9 .947C4.56.947.947 4.56.947 9c0 4.441 3.613 8.053 8.053 8.053 4.44 0 8.053-3.612 8.053-8.053C17.053 4.56 13.44.947 9 .947M9 18a8.943 8.943 0 01-6.364-2.636A8.937 8.937 0 010 9.001c0-2.404.936-4.664 2.636-6.364A8.939 8.939 0 019 0a8.94 8.94 0 016.364 2.637A8.94 8.94 0 0118 9a8.94 8.94 0 01-2.636 6.363A8.942 8.942 0 019 18"
       id="path4" />
    <circle
       style="fill:#000000;fill-opacity:1;fill-rule:evenodd;stroke-width:0.725031"
       id="path18"
       cx="5.2095866"
       cy="7.6042781"
       r="1.25" />
    <circle
       style="fill:#000000;fill-opacity:1;fill-rule:evenodd;stroke-width:0.725031"
       id="path18-3"
       cx="12.919864"
       cy="7.550272"
       r="1.25" />
    <path
       style="fill:none;stroke:#000000;stroke-width:1.033;stroke-linecap:butt;stroke-linejoin:round;stroke-opacity:1;stroke-miterlimit:4;stroke-dasharray:none"
       d="m 4.5771021,11.026447 8.7695389,-0.04419 c 0,0 -1.084405,3.889087 -4.3611956,3.911184 -3.2767899,0.0221 -4.4083433,-3.86699 -4.4083433,-3.86699 z"
       id="path877" />
  </g>
</svg>
