<?xml version="1.0" encoding="utf-8"?>
<!-- Generator: Adobe Illustrator 20.1.0, SVG Export Plug-In . SVG Version: 6.00 Build 0)  -->
<svg version="1.1" id="Layer_1" xmlns="http://www.w3.org/2000/svg" xmlns:xlink="http://www.w3.org/1999/xlink" x="0px" y="0px"
	 viewBox="0 0 1600 615" style="enable-background:new 0 0 1600 615;" xml:space="preserve">
<style type="text/css">
	.st0{fill:#162A47;}
	.st1{fill:none;stroke:#959696;stroke-width:6.9477;}
	.st2{fill:#959696;}
	.st3{clip-path:url(#SVGID_2_);}
	.st4{fill:none;stroke:#959696;stroke-width:3.4738;stroke-miterlimit:10;stroke-dasharray:13.5555,13.5555;}
	.st5{fill:none;stroke:#959696;stroke-width:3.4738;stroke-miterlimit:10;stroke-dasharray:13.6027,13.6027;}
	.st6{fill:none;stroke:#959696;stroke-width:3.4738;stroke-miterlimit:10;stroke-dasharray:14.2824,14.2824;}
	.st7{font-family:'BrixSansRegular';}
	.st8{font-size:55.6097px;}
</style>
<title>ucsd-usage-rotate</title>
<g>
	<polygon class="st0" points="282.7,151.4 282.7,151.3 282.7,151.3 282.7,137.1 268.4,137.1 268.4,151.4 	"/>
	<polygon class="st0" points="295.4,164.2 295.4,178.4 309.8,178.4 309.8,164.2 295.5,164.2 	"/>
	<rect x="134.1" y="2.9" class="st0" width="94.9" height="14.1"/>
	<rect x="134.1" y="29.7" class="st0" width="94.9" height="14.1"/>
	<rect x="134.1" y="56.6" class="st0" width="94.9" height="13.9"/>
	<rect x="322.5" y="191.2" class="st0" width="14.4" height="14.4"/>
	<rect x="322.5" y="137.1" class="st0" width="14.4" height="14.4"/>
	<rect x="295.5" y="137.1" class="st0" width="14.3" height="14.2"/>
	<rect x="161.3" y="164.2" class="st0" width="14.2" height="14.2"/>
	<rect x="134.2" y="191.2" class="st0" width="14.4" height="14.4"/>
	<polygon class="st0" points="148.4,151.3 148.6,151.3 148.6,137.1 134.2,137.1 134.2,151.4 148.4,151.4 	"/>
	<rect x="134.2" y="164.2" class="st0" width="14.2" height="14.4"/>
	<rect x="134.1" y="459.2" class="st0" width="94.9" height="14.1"/>
	<rect x="134.1" y="110.1" class="st0" width="94.9" height="14.1"/>
	<rect x="188.4" y="137.1" class="st0" width="14.4" height="14.4"/>
	<rect x="134.1" y="83.5" class="st0" width="94.9" height="13.8"/>
	<rect x="161.3" y="137.1" class="st0" width="14.3" height="14.2"/>
	<rect x="322.5" y="164.2" class="st0" width="14.4" height="14.4"/>
	<rect x="80.6" y="137" class="st0" width="13.8" height="94.7"/>
	<rect x="53.7" y="136.9" class="st0" width="13.9" height="94.8"/>
	<rect x="53.7" y="244.5" class="st0" width="13.9" height="94.8"/>
	<polygon class="st0" points="94.5,378.9 94.4,378.9 94.4,352 80.6,352 80.4,352 80.4,392.9 121.4,392.9 121.4,392.7 121.4,378.9 
		94.5,378.9 	"/>
	<rect x="242" y="110.1" class="st0" width="94.9" height="14.1"/>
	<rect x="134.1" y="432.3" class="st0" width="94.9" height="14.1"/>
	<rect y="244.5" class="st0" width="14.1" height="94.8"/>
	<rect x="26.9" y="136.9" class="st0" width="14.1" height="94.8"/>
	<rect y="136.9" class="st0" width="14.1" height="94.8"/>
	<rect x="26.9" y="244.5" class="st0" width="14.1" height="94.8"/>
	<rect x="80.6" y="244.5" class="st0" width="13.8" height="94.7"/>
	<rect x="242" y="29.7" class="st0" width="94.9" height="14.1"/>
	<rect x="242" y="56.6" class="st0" width="94.9" height="13.9"/>
	<polygon class="st0" points="80.4,124.2 80.6,124.2 94.4,124.2 94.4,97.3 94.5,97.3 94.5,97.3 121.4,97.3 121.4,83.4 121.4,83.2 
		80.4,83.2 	"/>
	<rect x="107.3" y="137" class="st0" width="14.1" height="94.7"/>
	<rect x="242" y="83.5" class="st0" width="94.9" height="13.8"/>
	<polygon class="st0" points="107.3,366.1 121.4,366.1 121.4,352 107.3,352 107.3,352 107.3,352 	"/>
	<rect x="107.3" y="244.5" class="st0" width="14.1" height="94.7"/>
	<polygon class="st0" points="121.4,110 107.3,110 107.3,124.2 107.3,124.2 107.3,124.2 121.4,124.2 	"/>
	<rect x="242" y="2.9" class="st0" width="94.9" height="14.1"/>
	<rect x="376.6" y="137" class="st0" width="13.8" height="94.7"/>
	<polygon class="st0" points="349.6,258 349.7,258 349.7,285.1 349.7,297.8 349.7,312.1 349.7,324.9 349.7,339.2 363.7,339.2 
		363.7,244.5 349.6,244.5 	"/>
	<polygon class="st0" points="349.6,366.1 363.8,366.1 363.8,352 363.7,352 363.7,352 349.7,352 349.6,352 	"/>
	<rect x="376.6" y="244.5" class="st0" width="13.8" height="94.7"/>
	<polygon class="st0" points="363.7,124.2 363.8,124.2 363.8,110 349.6,110 349.6,124.2 363.7,124.2 	"/>
	<rect x="322.6" y="270.7" class="st0" width="14.3" height="14.4"/>
	<rect x="349.6" y="137" class="st0" width="14.1" height="94.7"/>
	<polygon class="st0" points="376.6,352 376.6,378.9 376.5,378.9 376.5,378.9 349.6,378.9 349.6,392.7 349.6,392.9 390.6,392.9 
		390.6,352 390.4,352 	"/>
	<rect x="430" y="136.9" class="st0" width="14.1" height="94.8"/>
	<rect x="456.9" y="136.9" class="st0" width="14.1" height="94.8"/>
	<rect x="456.9" y="244.5" class="st0" width="14.1" height="94.8"/>
	<polygon class="st0" points="349.6,83.5 349.6,97.3 376.5,97.3 376.5,97.3 376.6,97.3 376.6,124.2 390.4,124.2 390.6,124.2 
		390.6,83.2 349.6,83.2 	"/>
	<rect x="322.6" y="297.8" class="st0" width="14.3" height="14.3"/>
	<rect x="430" y="244.5" class="st0" width="14.1" height="94.8"/>
	<rect x="403.3" y="244.5" class="st0" width="13.9" height="94.8"/>
	<rect x="403.3" y="136.9" class="st0" width="13.9" height="94.8"/>
	<polygon class="st0" points="309.9,352 295.5,352 282.8,352 255.7,352 242,352 242,366.1 336.9,366.1 336.9,352 322.6,352 	"/>
	<polygon class="st0" points="134.1,339.2 148.5,339.2 148.5,325 148.4,325 148.4,324.9 134.1,324.9 	"/>
	<rect x="161.2" y="297.9" class="st0" width="14.3" height="14.3"/>
	<rect x="134.1" y="270.7" class="st0" width="14.4" height="14.4"/>
	<rect x="161.2" y="325" class="st0" width="14.4" height="14.2"/>
	<polygon class="st0" points="215.4,352 188.3,352 175.6,352 161.2,352 148.5,352 134.1,352 134.1,366.1 229,366.1 229,352 	"/>
	<polygon class="st0" points="322.6,339.2 336.9,339.2 336.9,339.2 336.9,324.9 322.6,324.9 	"/>
	<rect x="134.1" y="297.8" class="st0" width="14.3" height="14.3"/>
	<rect x="188.3" y="324.9" class="st0" width="14.4" height="14.4"/>
	<polygon class="st0" points="295.4,312.1 295.5,312.1 309.8,312.1 309.8,297.9 295.4,297.9 	"/>
	<polygon class="st0" points="268.4,324.9 268.4,339.2 282.8,339.2 282.8,325 282.7,325 282.7,324.9 	"/>
	<rect x="134.1" y="378.9" class="st0" width="94.9" height="13.8"/>
	<rect x="134.1" y="405.7" class="st0" width="94.9" height="13.9"/>
	<rect x="242" y="459.2" class="st0" width="94.9" height="14.1"/>
	<rect x="295.5" y="325" class="st0" width="14.4" height="14.2"/>
	<rect x="242" y="378.9" class="st0" width="94.9" height="13.8"/>
	<rect x="242" y="432.3" class="st0" width="94.9" height="14.1"/>
	<rect x="242" y="405.7" class="st0" width="94.9" height="13.9"/>
	<polygon class="st0" points="1053.5,143.5 1053.4,143.4 1053.5,143.3 1043.4,133.3 1033.3,143.4 1043.4,153.6 	"/>
	<polygon class="st0" points="1071.5,143.5 1081.6,153.5 1091.7,143.4 1081.7,133.3 1071.6,143.4 	"/>
	
		<rect x="834.5" y="107.9" transform="matrix(0.7071 -0.7071 0.7071 0.7071 177.0502 657.2769)" class="st0" width="94.9" height="14.1"/>
	
		<rect x="853.5" y="126.9" transform="matrix(0.7071 -0.7071 0.7071 0.7071 169.1895 676.2784)" class="st0" width="94.9" height="14.1"/>
	
		<rect x="872.4" y="145.9" transform="matrix(0.7071 -0.7071 0.7071 0.7071 161.3483 695.2018)" class="st0" width="94.9" height="13.9"/>
	
		<rect x="1112.8" y="136.3" transform="matrix(0.7071 -0.7071 0.7071 0.7071 226.6195 833.9751)" class="st0" width="14.4" height="14.4"/>
	
		<rect x="1074.5" y="97.9" transform="matrix(0.7071 -0.7071 0.7071 0.7071 242.4917 795.6674)" class="st0" width="14.3" height="14.4"/>
	
		<rect x="1055.3" y="117.1" transform="matrix(0.7071 -0.7071 0.7071 0.7071 223.3689 787.6893)" class="st0" width="14.3" height="14.2"/>
	
		<rect x="979.6" y="231.2" transform="matrix(0.7071 -0.7071 0.7071 0.7071 120.4999 767.5139)" class="st0" width="14.2" height="14.2"/>
	
		<rect x="979.7" y="269.4" transform="matrix(0.7071 -0.7071 0.7071 0.7071 93.445 778.8109)" class="st0" width="14.4" height="14.4"/>
	<polygon class="st0" points="958.5,238.3 958.6,238.2 948.5,228.1 938.4,238.3 948.5,248.5 958.6,238.4 	"/>
	
		<rect x="960.5" y="250.3" transform="matrix(0.7071 -0.7071 0.7071 0.7071 101.331 759.6453)" class="st0" width="14.2" height="14.4"/>
	
		<rect x="1157.2" y="430.5" transform="matrix(0.7071 -0.7071 0.7071 0.7071 43.3975 979.9572)" class="st0" width="94.9" height="14.1"/>
	
		<rect x="910.3" y="183.7" transform="matrix(0.7071 -0.7071 0.7071 0.7071 145.646 733.1188)" class="st0" width="94.9" height="14.1"/>
	
		<rect x="979.6" y="192.8" transform="matrix(0.7071 -0.7071 0.7071 0.7071 147.5966 756.3604)" class="st0" width="14.4" height="14.4"/>
	
		<rect x="891.4" y="164.9" transform="matrix(0.7071 -0.7071 0.7071 0.7071 153.4996 714.1566)" class="st0" width="94.9" height="13.8"/>
	
		<rect x="960.4" y="212" transform="matrix(0.7071 -0.7071 0.7071 0.7071 128.4725 748.3856)" class="st0" width="14.3" height="14.2"/>
	
		<rect x="1093.7" y="117.1" transform="matrix(0.7071 -0.7071 0.7071 0.7071 234.5518 814.8188)" class="st0" width="14.4" height="14.4"/>
	
		<rect x="931.8" y="257.4" transform="matrix(0.7071 -0.7071 0.7071 0.7071 59.4777 753.0566)" class="st0" width="13.8" height="94.7"/>
	
		<rect x="912.8" y="276.2" transform="matrix(0.7071 -0.7071 0.7071 0.7071 40.5354 745.1801)" class="st0" width="13.9" height="94.8"/>
	
		<rect x="988.9" y="352.3" transform="matrix(0.7071 -0.7071 0.7071 0.7071 9.0217 821.2684)" class="st0" width="13.9" height="94.8"/>
	<polygon class="st0" points="1081.3,437.3 1081.2,437.4 1062.2,418.4 1052.5,428.2 1052.3,428.3 1081.3,457.3 1110.2,428.3 
		1110.1,428.1 1100.3,418.4 1081.3,437.4 	"/>
	
		<rect x="986.7" y="107.4" transform="matrix(0.7071 -0.7071 0.7071 0.7071 221.9633 764.7387)" class="st0" width="94.9" height="14.1"/>
	
		<rect x="1138.2" y="411.5" transform="matrix(0.7071 -0.7071 0.7071 0.7071 51.2696 960.9509)" class="st0" width="94.9" height="14.1"/>
	
		<rect x="950.9" y="390.3" transform="matrix(0.7071 -0.7071 0.7071 0.7071 -28.9127 805.5571)" class="st0" width="14.1" height="94.8"/>
	
		<rect x="893.8" y="295.2" transform="matrix(0.7071 -0.7071 0.7071 0.7071 21.6053 737.3417)" class="st0" width="14.1" height="94.8"/>
	
		<rect x="874.8" y="314.2" transform="matrix(0.7071 -0.7071 0.7071 0.7071 2.6104 729.4783)" class="st0" width="14.1" height="94.8"/>
	
		<rect x="969.9" y="371.3" transform="matrix(0.7071 -0.7071 0.7071 0.7071 -9.9018 813.4272)" class="st0" width="14.1" height="94.8"/>
	
		<rect x="1007.9" y="333.4" transform="matrix(0.7071 -0.7071 0.7071 0.7071 27.9861 829.0906)" class="st0" width="13.8" height="94.7"/>
	
		<rect x="929.8" y="50.5" transform="matrix(0.7071 -0.7071 0.7071 0.7071 245.5095 707.8917)" class="st0" width="94.9" height="14.1"/>
	
		<rect x="948.7" y="69.5" transform="matrix(0.7071 -0.7071 0.7071 0.7071 237.6684 726.8151)" class="st0" width="94.9" height="13.9"/>
	<polygon class="st0" points="891.2,267.2 891.3,267.1 901.1,257.3 882.1,238.3 882.2,238.2 882.2,238.2 901.2,219.2 891.4,209.4 
		891.2,209.3 862.3,238.3 	"/>
	
		<rect x="950.7" y="238.4" transform="matrix(0.7071 -0.7071 0.7071 0.7071 78.4433 760.9116)" class="st0" width="14.1" height="94.7"/>
	
		<rect x="967.7" y="88.6" transform="matrix(0.7071 -0.7071 0.7071 0.7071 229.8129 745.7671)" class="st0" width="94.9" height="13.8"/>
	<polygon class="st0" points="1081.3,419.3 1091.3,409.3 1081.2,399.3 1071.3,409.3 1071.3,409.3 1071.3,409.3 	"/>
	
		<rect x="1026.7" y="314.4" transform="matrix(0.7071 -0.7071 0.7071 0.7071 46.9516 836.9455)" class="st0" width="14.1" height="94.7"/>
	<polygon class="st0" points="910.2,228.2 900.2,238.2 910.2,248.2 910.2,248.2 910.2,248.3 920.2,238.3 	"/>
	
		<rect x="910.8" y="31.5" transform="matrix(0.7071 -0.7071 0.7071 0.7071 253.3769 688.8873)" class="st0" width="94.9" height="14.1"/>
	
		<rect x="1141.2" y="48.1" transform="matrix(0.7071 -0.7071 0.7071 0.7071 268.7883 839.7595)" class="st0" width="13.8" height="94.7"/>
	<polygon class="st0" points="1176.2,171.5 1176.3,171.4 1195.4,190.6 1204.4,199.6 1214.5,209.7 1223.5,218.7 1233.7,228.9 
		1243.6,218.9 1176.6,151.9 1166.7,161.9 	"/>
	<polygon class="st0" points="1252.7,247.9 1262.7,237.9 1252.7,228 1252.7,228 1252.6,227.9 1242.7,237.9 1242.6,237.9 	"/>
	
		<rect x="1217.2" y="124.1" transform="matrix(0.7071 -0.7071 0.7071 0.7071 237.2967 915.788)" class="st0" width="13.8" height="94.7"/>
	<polygon class="st0" points="1091.5,66.9 1091.6,66.8 1081.6,56.9 1071.6,66.8 1081.6,76.9 1091.6,66.9 	"/>
	
		<rect x="1169.1" y="192.4" transform="matrix(0.7071 -0.7071 0.7071 0.7071 203.3763 890.1832)" class="st0" width="14.3" height="14.3"/>
	
		<rect x="1122.1" y="67" transform="matrix(0.7071 -0.7071 0.7071 0.7071 249.8227 831.9045)" class="st0" width="14.1" height="94.7"/>
	<polygon class="st0" points="1261.8,218.9 1280.8,237.9 1280.7,238 1280.7,238 1261.7,257 1271.5,266.7 1271.6,266.9 1300.6,237.9 
		1271.7,209 1271.5,209.1 	"/>
	
		<rect x="1178.9" y="10.1" transform="matrix(0.7071 -0.7071 0.7071 0.7071 306.6799 855.4266)" class="st0" width="14.1" height="94.8"/>
	
		<rect x="1197.9" y="-8.9" transform="matrix(0.7074 -0.7069 0.7069 0.7074 325.3915 862.9851)" class="st0" width="14.1" height="94.8"/>
	
		<rect x="1273.9" y="67.2" transform="matrix(0.7071 -0.7071 0.7071 0.7071 294.1573 939.3824)" class="st0" width="14.1" height="94.8"/>
	<polygon class="st0" points="1052.8,48 1062.6,57.8 1081.6,38.8 1081.6,38.9 1081.7,38.8 1100.6,57.8 1110.4,48 1110.6,47.9 
		1081.6,18.9 1052.6,47.9 	"/>
	
		<rect x="1188.2" y="211.6" transform="matrix(0.7071 -0.7071 0.7071 0.7071 195.4501 909.3287)" class="st0" width="14.3" height="14.3"/>
	
		<rect x="1255" y="86.2" transform="matrix(0.7071 -0.7071 0.7071 0.7071 275.1624 931.5056)" class="st0" width="14.1" height="94.8"/>
	
		<rect x="1236.1" y="105.1" transform="matrix(0.7071 -0.7071 0.7071 0.7071 256.239 923.6645)" class="st0" width="13.9" height="94.8"/>
	<polygon class="st0" points="1195.6,114.9 1205.5,105 1138.4,38 1128.6,47.8 	"/>
	<polygon class="st0" points="1214.5,266 1204.4,276.2 1195.4,285.2 1176.2,304.3 1166.6,314 1176.5,324 1243.6,256.9 1233.6,246.9 
		1223.5,257 	"/>
	<polygon class="st0" points="1081.3,381.3 1091.4,371.1 1081.3,361.1 1081.3,361.1 1081.2,361 1071.1,371.1 	"/>
	
		<rect x="1074.1" y="325.8" transform="matrix(0.7071 -0.7071 0.7071 0.7071 81.2943 862.0853)" class="st0" width="14.3" height="14.3"/>
	
		<rect x="1035.8" y="325.7" transform="matrix(0.7071 -0.7071 0.7071 0.7071 70.1247 834.9778)" class="st0" width="14.4" height="14.3"/>
	
		<rect x="1093.3" y="344.9" transform="matrix(0.7071 -0.7071 0.7071 0.7071 73.3905 881.2426)" class="st0" width="14.3" height="14.2"/>
	<polygon class="st0" points="1147.7,332.8 1128.6,352 1119.6,361 1109.4,371.1 1100.4,380.1 1090.2,390.3 1100.2,400.3 
		1167.3,333.2 1157.3,323.2 	"/>
	<polygon class="st0" points="1214.5,248 1224.6,237.9 1224.7,237.9 1214.5,227.8 1204.4,237.9 	"/>
	
		<rect x="1054.9" y="344.9" transform="matrix(0.7071 -0.7071 0.7071 0.7071 62.1614 854.1202)" class="st0" width="14.3" height="14.3"/>
	
		<rect x="1112.4" y="325.7" transform="matrix(0.7071 -0.7071 0.7071 0.7071 92.5667 889.1408)" class="st0" width="14.4" height="14.4"/>
	<polygon class="st0" points="1176.2,248.1 1176.2,248 1186.3,237.9 1176.2,227.9 1166.1,238 	"/>
	<polygon class="st0" points="1166.1,276.2 1176.2,286.3 1186.4,276.2 1176.3,266.1 1176.2,266.2 1176.2,266.1 	"/>
	
		<rect x="1100.3" y="373.8" transform="matrix(0.7071 -0.7071 0.7071 0.7071 66.9606 923.0755)" class="st0" width="94.9" height="13.8"/>
	
		<rect x="1119.3" y="392.7" transform="matrix(0.7071 -0.7071 0.7071 0.7071 59.1127 942.0322)" class="st0" width="94.9" height="13.9"/>
	
		<rect x="1233.5" y="354.2" transform="matrix(0.7071 -0.7071 0.7071 0.7071 119.7214 1011.561)" class="st0" width="94.9" height="14.1"/>
	
		<rect x="1188.2" y="249.9" transform="matrix(0.7071 -0.7071 0.7071 0.7071 168.3641 920.5874)" class="st0" width="14.4" height="14.2"/>
	
		<rect x="1176.6" y="297.5" transform="matrix(0.7071 -0.7071 0.7071 0.7071 143.2807 954.6887)" class="st0" width="94.9" height="13.8"/>
	
		<rect x="1214.5" y="335.2" transform="matrix(0.7071 -0.7071 0.7071 0.7071 127.5868 992.5708)" class="st0" width="94.9" height="14.1"/>
	
		<rect x="1195.6" y="316.4" transform="matrix(0.7071 -0.7071 0.7071 0.7071 135.4232 973.6494)" class="st0" width="94.9" height="13.9"/>
	<line class="st1" x1="565.8" y1="238.1" x2="718.1" y2="238.1"/>
	<polygon class="st2" points="756,238.1 707.3,220.4 707.3,255.8 	"/>
	<g>
		<defs>
			<rect id="SVGID_1_" y="0" width="1510.4" height="518.9"/>
		</defs>
		<clipPath id="SVGID_2_">
			<use xlink:href="#SVGID_1_"  style="overflow:visible;"/>
		</clipPath>
		<g class="st3">
			<line class="st4" x1="1197.4" y1="515.9" x2="1419" y2="296.6"/>
			<line class="st5" x1="1197.4" y1="515.9" x2="1510.4" y2="517.2"/>
			<path class="st6" d="M1292.1,514.6c-1.3-24-11.4-46.8-28.5-63.8"/>
		</g>
	</g>
	<text transform="matrix(1 0 0 1 1365.209 454.3359)" class="st2 st7 st8">45ยบ</text>
</g>
</svg>
