<?xml version="1.0" encoding="UTF-8" standalone="no"?>
<svg
   xmlns:dc="http://purl.org/dc/elements/1.1/"
   xmlns:cc="http://creativecommons.org/ns#"
   xmlns:rdf="http://www.w3.org/1999/02/22-rdf-syntax-ns#"
   xmlns:svg="http://www.w3.org/2000/svg"
   xmlns="http://www.w3.org/2000/svg"
   xmlns:sodipodi="http://sodipodi.sourceforge.net/DTD/sodipodi-0.dtd"
   xmlns:inkscape="http://www.inkscape.org/namespaces/inkscape"
   width="1000"
   height="1000"
   viewBox="0 0 1000 1000"
   fill="none"
   version="1.1"
   id="svg28"
   sodipodi:docname="logo_full.svg"
   inkscape:version="1.0.2-2 (e86c870879, 2021-01-15)">
  <metadata
     id="metadata34">
    <rdf:RDF>
      <cc:Work
         rdf:about="">
        <dc:format>image/svg+xml</dc:format>
        <dc:type
           rdf:resource="http://purl.org/dc/dcmitype/StillImage" />
      </cc:Work>
    </rdf:RDF>
  </metadata>
  <defs
     id="defs32" />
  <sodipodi:namedview
     pagecolor="#ffffff"
     bordercolor="#666666"
     borderopacity="1"
     objecttolerance="10"
     gridtolerance="10"
     guidetolerance="10"
     inkscape:pageopacity="0"
     inkscape:pageshadow="2"
     inkscape:window-width="1920"
     inkscape:window-height="1001"
     id="namedview30"
     showgrid="false"
     inkscape:zoom="0.415"
     inkscape:cx="-41.574812"
     inkscape:cy="365.95159"
     inkscape:window-x="-9"
     inkscape:window-y="-9"
     inkscape:window-maximized="1"
     inkscape:current-layer="svg28" />
  <path
     d="m 522.46795,480.45462 22.24697,19.88727 -9.17415,0.56334 4.01374,14.87317 9.91924,-0.95759 -0.9172,-23.0422 h -5.79113 l 12.67157,-30.76064 12.15562,30.76064 h -6.30711 l -2.00687,23.0422 8.88731,0.95759 4.87357,-13.40826 -7.79765,-2.02825 23.04944,-19.88727 -14.67844,45.85894 -14.90759,-4.61951 -2.35071,39.32392 h -5.16044 l -1.72037,-39.32392 -16.68497,4.61951 z"
     fill="#182b49"
     id="path4"
     style="stroke-width:0.348877" />
  <path
     d="m 539.09588,521.69405 -12.21297,-32.22554 8.25662,32.84526 z"
     fill="#ffcd00"
     id="path6"
     style="stroke-width:0.348877" />
  <path
     d="m 559.16388,489.46851 h 4.24322 l -9.11679,-23.49281 z"
     fill="#ffcd00"
     id="path8"
     style="stroke-width:0.348877" />
  <path
     d="m 568.79665,521.69405 4.18548,0.61972 9.80488,-32.84526 z"
     fill="#ffcd00"
     id="path10"
     style="stroke-width:0.348877" />
  <path
     d="m 499.59063,519.46211 -2.46372,7.4352 h 1.93577 l -5.27937,17.29116 c -0.46918,1.84428 -0.52795,5.56776 2.99165,5.70609 3.51959,0.13833 12.25977,0.0577 16.19011,0 1.40784,0.11516 4.54027,-0.65707 5.80731,-4.66862 1.26705,-4.01155 4.28229,-13.89068 5.63136,-18.32863 h 1.58379 l 2.28773,-7.4352 h -12.49454 l -6.86318,23.17016 h -3.69557 l 7.03917,-23.17016 z"
     fill="#182b49"
     id="path12"
     style="stroke-width:0.348877" />
  <path
     d="m 555.20012,519.46211 h -17.06999 c -2.34652,-0.11516 -7.42634,0.93373 -8.97494,6.05191 -1.54865,5.11818 -3.8128,13.54486 -4.75145,17.11825 -0.76271,2.42077 -0.87992,7.26229 4.75145,7.26229 h 16.71801 l 3.51959,-11.58508 h -8.79895 l -1.23187,4.32279 h -4.92743 l 4.39948,-15.73496 h 4.92743 l -0.87989,3.28532 h 8.97495 z"
     fill="#182b49"
     id="path14"
     style="stroke-width:0.348877" />
  <path
     d="m 583.00486,519.46211 h -17.94988 c -2.11176,0.28808 -6.58164,1.62537 -7.56712,4.66861 -0.98548,3.04325 -1.93578,5.879 -2.28774,6.91647 -0.82111,2.42077 -0.8447,7.26229 5.63134,7.26229 h 7.21517 l -1.23186,4.4957 h -4.22352 l 0.87992,-2.59367 h -10.03083 l -2.81569,9.68305 h 17.42198 c 2.40494,0.17291 7.56711,-1.00289 8.97495,-7.08938 1.40782,-6.08649 1.36384,-5.70608 1.58381,-6.57064 0.39595,-1.5562 0,-4.3228 -3.3436,-4.3228 h -9.85485 l 1.40783,-5.18734 h 4.92742 l -0.52794,2.42076 h 9.15094 z"
     fill="#182b49"
     id="path16"
     style="stroke-width:0.348877" />
  <path
     fill-rule="evenodd"
     clip-rule="evenodd"
     d="m 586.87642,519.46211 -2.11175,7.26229 h 2.46371 l -4.57547,16.08078 h -2.28772 l -1.93579,6.74355 h 17.94991 c 2.28774,0.11517 7.28557,-0.86455 8.97495,-5.70607 1.6894,-4.84153 3.98875,-12.73772 4.92742,-16.08079 0.9971,-2.53592 1.7598,-8.29976 -3.87155,-8.29976 z m 14.07837,7.26229 h -4.57548 l -4.92742,17.11826 h 4.39947 z"
     fill="#182b49"
     id="path18"
     style="stroke-width:0.348877" />
  <path
     d="m 529.15519,549.89456 c -5.63137,0 -5.51416,-4.84152 -4.75145,-7.26229 0.93865,-3.57339 3.2028,-12.00007 4.75145,-17.11825 1.5486,-5.11818 6.62842,-6.16707 8.97494,-6.05191 h 17.06999 l -3.34361,10.72052 h -8.97495 l 0.87989,-3.28532 h -4.92743 l -4.39948,15.73496 h 4.92743 l 1.23187,-4.32279 h 8.79895 l -3.51959,11.58508 m -16.71801,0 c 5.63131,0 13.37442,0 16.71801,0 m -16.71801,0 h 16.71801 m 14.95826,-11.58508 c -6.47604,0 -6.45245,-4.84152 -5.63134,-7.26229 0.35196,-1.03747 1.30226,-3.87322 2.28774,-6.91647 0.98548,-3.04324 5.45536,-4.38053 7.56712,-4.66861 h 17.94988 l -2.63967,9.68305 h -9.15094 l 0.52794,-2.42076 h -4.92742 l -1.40783,5.18734 m -4.57548,6.39774 c 6.47606,0 7.21517,0 7.21517,0 m -7.21517,0 h 7.21517 m 0,0 -1.23186,4.4957 h -4.22352 l 0.87992,-2.59367 h -10.03083 l -2.81569,9.68305 h 17.42198 c 2.40494,0.17291 7.56711,-1.00289 8.97495,-7.08938 1.40782,-6.08649 1.36384,-5.70608 1.58381,-6.57064 0.39595,-1.5562 0,-4.3228 -3.3436,-4.3228 m 0,0 c -3.80116,0 -8.15384,0 -9.85485,0 m 9.85485,0 h -9.85485 m 21.46948,-12.44963 -2.11175,7.26229 h 2.46371 l -4.57547,16.08078 h -2.28772 l -1.93579,6.74355 h 17.94991 c 2.28774,0.11517 7.28557,-0.86455 8.97495,-5.70607 1.6894,-4.84153 3.98875,-12.73772 4.92742,-16.08079 0.9971,-2.53592 1.7598,-8.29976 -3.87155,-8.29976 m -19.53371,0 c 5.45536,0 13.90237,0 19.53371,0 m -19.53371,0 h 19.53371 m -106.8195,0 -2.46372,7.4352 h 1.93577 l -5.27937,17.29116 c -0.46918,1.84428 -0.52795,5.56776 2.99165,5.70609 3.51959,0.13833 12.25977,0.0577 16.19011,0 1.40784,0.11516 4.54027,-0.65707 5.80731,-4.66862 1.26705,-4.01155 4.28229,-13.89068 5.63136,-18.32863 h 1.58379 l 2.28773,-7.4352 h -12.49454 l -6.86318,23.17016 h -3.69557 l 7.03917,-23.17016 z m 96.78868,7.26229 h 4.57548 l -5.10343,17.11826 h -4.39947 z"
     stroke="#ffcd00"
     stroke-width="1.39552"
     id="path20" />
  <path
     d="m 381.6844,518.94338 v 5.87899 h 3.87156 v 19.3661 h -3.87156 v 6.39773 h 14.25434 v -6.39773 h -4.04753 v -12.44963 l 16.01413,18.84736 h 5.27939 v -25.76383 h 4.22349 v -5.70608 h -14.4303 v 5.70608 h 4.04752 v 10.89343 l -13.72639,-16.59951 z"
     fill="#000000"
     id="path22"
     style="stroke-width:0.348877" />
  <path
     d="m 420.57587,519.11629 v 5.70608 h 3.87153 v 19.53902 h -3.87153 v 6.22481 h 30.26847 v -12.10381 h -5.45539 v 5.879 h -12.8465 v -6.91647 h 8.79899 v -5.70608 h -8.79899 v -6.91647 h 12.8465 v 6.39774 h 5.45539 v -12.10382 z"
     fill="#000000"
     id="path24"
     style="stroke-width:0.348877" />
  <path
     d="m 453.30804,519.11629 v 5.70608 h 3.3436 l 9.67887,10.3747 -8.62299,9.51014 h -4.39948 v 5.87899 h 13.72639 v -5.87899 h -2.11174 l 5.10339,-6.22482 5.63135,6.22482 h -1.05588 v 5.87899 h 15.48618 v -5.87899 h -3.51959 l -10.73473,-10.54761 8.79897,-9.33723 h 4.57546 v -5.70608 h -13.90238 v 5.87899 h 1.93578 l -5.45537,6.05191 -5.45536,-6.22482 h 1.05589 v -5.70608 z"
     fill="#000000"
     id="path26"
     style="stroke-width:0.348877" />
</svg>
